# xmcd CD database file
#
# Track frame offsets:
#	150
#	17140
#	45809
#	78257
#	101662
#	127331
#	157203
#	173302
#	196804
#	221662
#	244756
#	268165
#	296460
#
# Disc length: 4250 seconds
#
# Revision: 0
# Processed by: cddbd v1.5.2PL0 Copyright (c) Steve Scherf et al.
# Submitted via: CDex 1.51
#
DISCID=b110980d
DTITLE=triosence - One Summer Night
DYEAR=2013
DGENRE=Jazz
TTITLE0=Waltz For Andrea
TTITLE1=No One's Fault
TTITLE2=The Road Ahead
TTITLE3=Wan Chuen Fong - Ilha Formosa
TTITLE4=Secret Holiday
TTITLE5=A Far-Off Place
TTITLE6=When Time Stands Still
TTITLE7=My Best Friend
TTITLE8=Winter Rain
TTITLE9=Summer Rain
TTITLE10=Go For It
TTITLE11=Your Nearness
TTITLE12=You're My Spring
EXTD=YEAR: 2013
EXTT0=
EXTT1=
EXTT2=
EXTT3=
EXTT4=
EXTT5=
EXTT6=
EXTT7=
EXTT8=
EXTT9=
EXTT10=
EXTT11=
EXTT12=
PLAYORDER=
